<svg xmlns="http://www.w3.org/2000/svg" viewBox="0 0 480 200" width="480" height="200" role="img" aria-label="All-Access preview">
  <defs>
    <linearGradient id="bg" x1="0" y1="0" x2="1" y2="1">
      <stop offset="0%" stop-color="#1e3a8a"/><stop offset="100%" stop-color="#0f172a"/>
    </linearGradient>
    <linearGradient id="panel" x1="0" y1="0" x2="0" y2="1">
      <stop offset="0%" stop-color="#ffffff" stop-opacity="0.22"/>
      <stop offset="100%" stop-color="#ffffff" stop-opacity="0.06"/>
    </linearGradient>
  </defs>
  <rect width="480" height="200" fill="url(#bg)"/>
  <g stroke="#ffffff" stroke-opacity="0.18" fill="url(#panel)">
    <rect x="24" y="44" width="150" height="150" rx="8"/>
    <rect x="188" y="26" width="150" height="168" rx="8"/>
    <rect x="352" y="52" width="150" height="142" rx="8"/>
  </g>
  <g fill="#ffffff" fill-opacity="0.30">
    <rect x="38" y="58" width="72" height="6" rx="3"/><rect x="38" y="72" width="112" height="4" rx="2"/><rect x="38" y="82" width="96" height="4" rx="2"/>
    <rect x="202" y="40" width="82" height="6" rx="3"/><rect x="202" y="54" width="118" height="4" rx="2"/><rect x="202" y="64" width="102" height="4" rx="2"/>
    <rect x="366" y="66" width="70" height="6" rx="3"/><rect x="366" y="80" width="110" height="4" rx="2"/>
  </g>
  <circle cx="262" cy="118" r="26" fill="#3b82f6" fill-opacity="0.55"/>
</svg>